<!DOCTYPE svg PUBLIC "-//W3C//DTD SVG 1.1//EN" "http://www.w3.org/Graphics/SVG/1.1/DTD/svg11.dtd">
<!-- Uploaded to: SVG Repo, www.svgrepo.com, Transformed by: SVG Repo Mixer Tools -->
<svg height="64px" width="64px" version="1.1" id="Layer_1" xmlns="http://www.w3.org/2000/svg" xmlns:xlink="http://www.w3.org/1999/xlink" viewBox="0 0 512.00 512.00" xml:space="preserve" fill="#000000" stroke="#000000" stroke-width="0.00512">
<g id="SVGRepo_bgCarrier" stroke-width="0"/>
<g id="SVGRepo_tracerCarrier" stroke-linecap="round" stroke-linejoin="round" stroke="#CCCCCC" stroke-width="2.048"/>
<g id="SVGRepo_iconCarrier"> <path style="fill:#4E901E;" d="M323.884,323.654c0,87.338-70.802,158.14-158.14,158.14S7.604,410.993,7.604,323.654 s70.802-293.45,158.14-293.45S323.884,236.316,323.884,323.654z"/> <path style="fill:#47821C;" d="M197.567,127.281c-29.91,65.264-50.006,144.18-50.006,196.373 c0,59.799,26.555,113.508,68.489,149.964c62.674-21.016,107.832-80.215,107.832-149.965c0-64.239-38.305-192.732-93.318-256.207 C218.982,84.649,207.953,104.619,197.567,127.281z"/> <path style="fill:#A4E276;" d="M165.744,441.24c-64.837,0-117.586-52.749-117.586-117.586c0-34.566,14.643-101.511,42.631-162.581 c28.438-62.051,58.789-90.314,74.955-90.314s46.518,28.262,74.956,90.314c27.987,61.07,42.631,128.015,42.631,162.581 C283.33,388.491,230.581,441.24,165.744,441.24z"/> <path style="fill:#91DC5A;" d="M208.496,104.888c-3.716,7.147-7.361,14.606-10.927,22.389 c-29.91,65.264-50.006,144.18-50.006,196.373c0,43.262,13.907,83.332,37.472,115.994c55.691-9.231,98.296-57.727,98.296-115.994 c0-34.566-14.643-101.511-42.631-162.581C229.948,137.609,218.924,118.986,208.496,104.888z"/> <path style="fill:#FFDAAA;" d="M217.658,171.633c-19.919-43.464-38.149-63.843-47.77-71.724c-3.709-2.699-6.572-1.409-8.533,0.199 c-9.683,8.027-27.776,28.434-47.524,71.524c-26.193,57.156-40.326,120.984-40.326,152.022c0,50.86,41.379,92.239,92.239,92.239 c50.861,0,92.24-41.379,92.24-92.239C257.983,292.616,243.85,228.788,217.658,171.633z"/> <path style="fill:#FFC477;" d="M147.561,323.639c0,33.229,8.211,64.573,22.693,92.127c48.774-2.36,87.728-42.779,87.728-92.127 c0-31.038-14.133-94.866-40.325-152.021c-7.659-16.712-15.065-29.994-21.834-40.484 C166.884,195.627,147.561,272.472,147.561,323.639z"/> <circle style="fill:#CC7400;" cx="165.746" cy="322.762" r="62.099"/> <path style="fill:#AA6100;" d="M165.744,260.67c-3.903,0-7.715,0.377-11.419,1.066c-4.363,22.706-6.763,43.898-6.763,61.903 c0,21.128,3.332,41.488,9.471,60.602c2.848,0.4,5.753,0.62,8.711,0.62c34.295,0,62.096-27.801,62.096-62.096 C227.84,288.471,200.039,260.67,165.744,260.67z"/> <path style="fill:#5EAC24;" d="M504.396,323.654c0,87.338-70.802,158.14-158.14,158.14s-158.14-70.802-158.14-158.14 s70.802-293.45,158.14-293.45S504.396,236.316,504.396,323.654z"/> <g> <path style="fill:#4E901E;" d="M273.259,324.054c0-72.686,49.039-227.627,115.836-277.573 c-13.624-10.316-27.992-16.277-42.839-16.277c-87.338,0-158.14,206.111-158.14,293.449s70.802,158.14,158.14,158.14 c14.483,0,28.508-1.958,41.834-5.605C321.806,457.357,273.259,396.375,273.259,324.054z"/> <circle style="fill:#4E901E;" cx="346.254" cy="329.241" r="17.038"/> <circle style="fill:#4E901E;" cx="442.449" cy="292.914" r="17.038"/> <circle style="fill:#4E901E;" cx="363.297" cy="205.813" r="17.038"/> <path style="fill:#4E901E;" d="M387.937,291.086c-1.998,0-3.954-0.811-5.373-2.22c-1.419-1.419-2.23-3.376-2.23-5.384 c0-1.997,0.811-3.964,2.23-5.373c1.418-1.419,3.375-2.231,5.373-2.231c2.006,0,3.964,0.811,5.384,2.231 c1.41,1.419,2.22,3.376,2.22,5.373c0,2.007-0.811,3.964-2.22,5.384C391.901,290.275,389.943,291.086,387.937,291.086z"/> <path style="fill:#4E901E;" d="M412.032,353.886c-1.998,0-3.954-0.811-5.373-2.22c-1.419-1.419-2.231-3.376-2.231-5.384 c0-1.997,0.811-3.964,2.231-5.373c1.418-1.419,3.375-2.23,5.373-2.23c2.006,0,3.964,0.811,5.384,2.23 c1.41,1.419,2.22,3.376,2.22,5.373c0,2.007-0.811,3.964-2.22,5.384C415.996,353.075,414.039,353.886,412.032,353.886z"/> <path style="fill:#4E901E;" d="M315.313,283.482c-1.998,0-3.954-0.811-5.373-2.22c-1.419-1.419-2.23-3.376-2.23-5.384 c0-1.997,0.811-3.964,2.23-5.373c1.418-1.419,3.375-2.23,5.373-2.23c2.006,0,3.964,0.811,5.384,2.23 c1.41,1.419,2.22,3.376,2.22,5.373c0,2.007-0.811,3.964-2.22,5.384C319.277,282.671,317.319,283.482,315.313,283.482z"/> <path style="fill:#4E901E;" d="M427.24,221.021c-1.998,0-3.954-0.811-5.373-2.22c-1.419-1.419-2.231-3.376-2.231-5.384 c0-1.997,0.811-3.964,2.231-5.373c1.418-1.419,3.375-2.23,5.373-2.23c2.006,0,3.964,0.811,5.384,2.23 c1.41,1.419,2.22,3.376,2.22,5.373c0,2.007-0.811,3.964-2.22,5.384C431.204,220.21,429.247,221.021,427.24,221.021z"/> <path style="fill:#4E901E;" d="M382.202,138.392c-1.998,0-3.954-0.811-5.373-2.22c-1.419-1.419-2.231-3.376-2.231-5.384 c0-1.997,0.811-3.964,2.231-5.373c1.418-1.419,3.375-2.23,5.373-2.23c2.006,0,3.964,0.811,5.384,2.23 c1.41,1.419,2.22,3.376,2.22,5.373c0,2.007-0.811,3.964-2.22,5.384C386.167,137.58,384.21,138.392,382.202,138.392z"/> <path style="fill:#4E901E;" d="M370.898,386.836c-1.998,0-3.954-0.811-5.373-2.22c-1.419-1.419-2.23-3.376-2.23-5.384 c0-1.997,0.811-3.964,2.23-5.373c1.418-1.419,3.375-2.23,5.373-2.23c2.006,0,3.964,0.811,5.384,2.23 c1.41,1.419,2.22,3.376,2.22,5.373c0,2.007-0.811,3.964-2.22,5.384C374.863,386.025,372.905,386.836,370.898,386.836z"/> <path style="fill:#4E901E;" d="M451.856,395.831c-3.816-1.753-4.759-6.837-2.594-10.436c2.136-3.551,4.113-7.257,5.872-11.018 c1.782-3.803,6.31-5.442,10.111-3.663c3.804,1.78,5.443,6.307,3.663,10.11c-1.983,4.236-4.209,8.411-6.616,12.412 C460.864,395.608,456.998,398.194,451.856,395.831z"/> <path style="fill:#4E901E;" d="M387.322,444.847c-1.054-4.065,0.279-8.327,4.167-9.914c17.382-7.092,33.112-18.378,45.49-32.639 c2.753-3.172,7.556-3.511,10.727-0.757c3.172,2.753,3.511,7.555,0.758,10.727c-13.934,16.052-31.65,28.761-51.228,36.751 C396.296,449.399,389.095,451.675,387.322,444.847z"/> </g> <path d="M464.99,141.01C444.724,96.788,402.35,22.601,346.257,22.601c-36.747,0-67.606,31.838-90.219,66.233 c-28.473-43.381-59.537-66.233-90.293-66.233c-30.872,0-61.052,21.972-89.698,65.308c-2.316,3.503-1.352,8.22,2.15,10.536 c3.505,2.318,8.221,1.354,10.537-2.15c17.637-26.681,45.315-58.487,77.011-58.487c33.334,0,62.291,34.647,81.405,65.343 c-5.274,8.979-9.968,17.853-14.043,26.117c-23.084-41.11-48.325-66.114-67.362-66.114c-23.353,0-55.488,37.191-81.867,94.75 c-28.441,62.06-43.322,130.359-43.322,165.749c0,36.235,15.743,70.69,43.195,94.53c1.44,1.25,6.992,4.088,10.728-0.755 c2.565-3.325,2.415-7.974-0.755-10.728c-24.124-20.949-37.959-51.219-37.959-83.047c0-33.741,14.406-99.333,41.939-159.413 c16.079-35.086,31.091-55.554,40.853-66.545c12.658-14.254,22.344-19.332,27.189-19.332c9.359,0,33.588,18.548,59.339,68.06 c-1.774,3.999-3.512,8.053-5.21,12.155c-20.33-41.368-38.124-58.782-45.168-64.551c-0.112-0.091-0.226-0.18-0.344-0.266 c-5.725-4.168-12.393-3.993-17.859,0.493c-7.551,6.26-27.499,26.021-49.583,74.21c-26.641,58.136-41.018,123.347-41.018,155.19 c0,55.054,44.789,99.843,99.843,99.843c14.444,0,28.776-3.166,41.825-9.195c1.88,2.866,3.836,5.677,5.885,8.416 c-14.818,7.154-31.141,10.916-47.71,10.916c-18.6,0-36.991-4.751-53.186-13.738c-3.672-2.038-8.301-0.713-10.338,2.959 c-2.038,3.672-0.713,8.301,2.958,10.338c18.447,10.237,39.392,15.648,60.566,15.648c20.101,0,39.888-4.865,57.625-14.089 c5.962,6.587,12.447,12.689,19.384,18.251c-23.239,13.875-49.66,21.185-77.01,21.185C82.737,474.191,15.208,406.66,15.208,323.654 c0-45.653,19.009-118.69,46.227-177.612c1.761-3.812,0.098-8.331-3.714-10.092c-3.813-1.762-8.331-0.098-10.092,3.715 C19.585,200.374,0,276.033,0,323.654c0,91.392,74.353,165.744,165.744,165.744c32.297,0,63.43-9.241,90.32-26.756 c25.974,16.913,56.954,26.756,90.193,26.756c91.391,0,165.743-74.353,165.743-165.744C512,276.512,492.67,201.405,464.99,141.01z M165.744,408.29c-46.668,0-84.635-37.967-84.635-84.635c0-30.233,13.891-92.678,39.636-148.854 c20.344-44.394,37.965-62.484,44.997-68.448c24.696,20.955,46.42,71.537,46.503,71.692c-9.749,26.249-17.758,53.533-23.29,78.999 c-7.424-2.629-15.201-3.977-23.209-3.977c-38.432,0-69.7,31.267-69.7,69.7s31.267,69.7,69.7,69.7c9.414,0,18.722-1.917,27.315-5.573 c2.017,4.867,4.258,9.615,6.713,14.237C189.1,405.823,177.468,408.29,165.744,408.29z M187.874,372.545 c-6.93,3.078-14.479,4.713-22.13,4.713c-30.048,0-54.492-24.445-54.492-54.492s24.444-54.492,54.492-54.492 c7,0,13.773,1.297,20.178,3.857c-3.491,19.059-5.411,36.678-5.411,51.523C180.512,340.665,183.091,357.085,187.874,372.545z M346.256,474.191c-83.006,0-150.537-67.53-150.537-150.536c0-45.189,18.763-117.69,45.627-176.308 c31.903-69.612,70.141-109.537,104.91-109.537c34.768,0,73.007,39.925,104.909,109.537c26.864,58.618,45.627,131.12,45.627,176.308 C496.792,406.66,429.263,474.191,346.256,474.191z"/> <path d="M62.444,126.41c5.41,2.857,8.922-0.559,10.291-3.122c1.166-2.181,2.37-4.383,3.579-6.542 c2.051-3.665,0.743-8.298-2.921-10.349c-3.664-2.05-8.297-0.743-10.348,2.921c-1.257,2.246-2.51,4.534-3.722,6.802 C57.343,119.823,58.731,124.448,62.444,126.41z"/> </g>
</svg>