<?xml version="1.0" encoding="iso-8859-1"?>
<!-- Uploaded to: SVG Repo, www.svgrepo.com, Generator: SVG Repo Mixer Tools -->
<svg height="800px" width="800px" version="1.1" id="Layer_1" xmlns="http://www.w3.org/2000/svg" xmlns:xlink="http://www.w3.org/1999/xlink" 
	 viewBox="0 0 512 512" xml:space="preserve">
<g>
	<path style="fill:#EFEFEF;" d="M457.192,124.184v314.276c0,32.565-26.405,58.97-58.97,58.97s-58.97-26.058-58.97-58.623
		c0-32.329,26.03-58.623,58.276-58.623H113.084V13.875H346.19L457.192,124.184z"/>
	<path style="fill:#EFEFEF;" d="M398.222,498.125H113.084c-32.246-1.388-58.276-26.641-58.276-58.97s26.03-58.97,58.276-58.97
		h284.444c-32.246,0-58.276,26.641-58.276,58.97C339.252,471.72,365.657,498.125,398.222,498.125z"/>
	<polygon style="fill:#EFEFEF;" points="346.19,13.182 346.19,124.878 457.192,124.878 	"/>
</g>
<path d="M467.004,114.373L356.001,3.717C353.399,1.116,349.869,0,346.19,0H113.084c-7.663,0-13.875,5.518-13.875,13.182v353.792
	c-33.157,6.578-58.276,36.82-58.276,71.834c0,39.706,32.295,73.192,71.991,73.192c0.054,0,0.108,0,0.161,0h284.444l-0.037-0.365
	c0.244,0.003,0.487-0.155,0.731-0.155c40.168,0,72.846-32.851,72.846-73.019V124.184
	C471.068,120.505,469.605,116.975,467.004,114.373z M423.695,111.003h-63.63V46.679L423.695,111.003z M340.64,484.249H113.17
	c-24.536-1.388-44.487-20.54-44.487-45.095s19.951-45.095,44.487-45.095h227.47h0.493c-9.857,11.1-15.755,27.777-15.755,44.748
	c0,17.176,5.99,33.145,15.972,45.614L340.64,484.249z M398.222,483.556c-24.865,0-45.095-20.23-45.095-45.095
	c0-24.58,19.99-44.81,44.562-45.095c7.631-0.089,13.759-5.978,13.714-13.609c-0.044-7.631-6.244-13.448-13.875-13.448H126.959
	V27.751h205.355v96.434c0,7.663,6.212,14.569,13.875,14.569h97.127v299.707C443.317,463.325,423.087,483.556,398.222,483.556z"/>
<path d="M389.203,192.867h-208.13c-7.663,0-13.875,6.212-13.875,13.875s6.212,13.875,13.875,13.875h208.13
	c7.663,0,13.875-6.212,13.875-13.875S396.867,192.867,389.203,192.867z"/>
<path d="M181.073,165.117h109.615c7.663,0,13.875-6.212,13.875-13.875s-6.212-13.875-13.875-13.875H181.073
	c-7.663,0-13.875,6.212-13.875,13.875S173.41,165.117,181.073,165.117z"/>
<path d="M181.073,109.615h109.615c7.663,0,13.875-6.212,13.875-13.875s-6.212-13.875-13.875-13.875H181.073
	c-7.663,0-13.875,6.212-13.875,13.875S173.41,109.615,181.073,109.615z"/>
<path d="M389.203,248.369h-208.13c-7.663,0-13.875,6.212-13.875,13.875c0,7.663,6.212,13.875,13.875,13.875h208.13
	c7.663,0,13.875-6.212,13.875-13.875C403.079,254.581,396.867,248.369,389.203,248.369z"/>
<path d="M389.203,303.87h-208.13c-7.663,0-13.875,6.212-13.875,13.875c0,7.663,6.212,13.875,13.875,13.875h208.13
	c7.663,0,13.875-6.212,13.875-13.875C403.079,310.082,396.867,303.87,389.203,303.87z"/>
</svg>