<svg xmlns="http://www.w3.org/2000/svg" xmlns:xlink="http://www.w3.org/1999/xlink" viewBox="0 0 192 192" width="192" height="192" preserveAspectRatio="xMidYMid meet" style="width: 100%; height: 100%; transform: translate3d(0px, 0px, 0px); content-visibility: visible;"><defs><clipPath id="__lottie_element_798"><rect width="192" height="192" x="0" y="0"/></clipPath></defs><g clip-path="url(#__lottie_element_798)"><g transform="matrix(1,0,0,1,27.225997924804688,23.667999267578125)" opacity="1" style="display: block;"><g opacity="1" transform="matrix(1,0,0,1,72.33200073242188,72.33200073242188)"><path stroke-linecap="round" stroke-linejoin="round" fill-opacity="0" stroke="rgb(7,5,6)" stroke-opacity="1" stroke-width="10.333" d=" M30.90399932861328,-34.744998931884766 C40.472999572753906,-26.22800064086914 46.5,-13.817999839782715 46.5,0 C46.5,25.68199920654297 25.680999755859375,46.5 0,46.5"/></g></g><g transform="matrix(1,0,0,1,78.89199829101562,75.33399963378906)" opacity="1" style="display: block;"><g opacity="1" transform="matrix(1,0,0,1,20.666000366210938,20.666000366210938)"><path stroke-linecap="round" stroke-linejoin="round" fill-opacity="0" stroke="rgb(7,5,6)" stroke-opacity="1" stroke-width="10.333" d=" M15.5,15.5 C15.5,15.5 -3.0420000553131104,-3.0420000553131104 -11.446000099182129,-11.446000099182129"/></g></g><g transform="matrix(1,0,0,1,78.89099884033203,75.33399963378906)" opacity="1" style="display: block;"><g opacity="1" transform="matrix(1,0,0,1,20.666000366210938,20.666000366210938)"><path stroke-linecap="round" stroke-linejoin="round" fill-opacity="0" stroke="rgb(7,5,6)" stroke-opacity="1" stroke-width="10.333" d=" M-15.5,15.5 C-15.5,15.5 15.5,-15.5 15.5,-15.5"/></g></g></g></svg>