<?xml version="1.0" encoding="iso-8859-1"?>
<!-- Uploaded to: SVG Repo, www.svgrepo.com, Generator: SVG Repo Mixer Tools -->
<svg height="800px" width="800px" version="1.1" id="Layer_1" xmlns="http://www.w3.org/2000/svg" xmlns:xlink="http://www.w3.org/1999/xlink" 
	 viewBox="0 0 512 512" xml:space="preserve">
<path style="fill:#61ACD2;" d="M484.272,453.297l-152-152.001c25.045-30.438,40.102-69.387,40.102-111.789
	c0-97.162-79.046-176.208-176.208-176.208S19.959,92.345,19.959,189.506s79.046,176.208,176.206,176.208
	c35.586,0,68.734-10.614,96.467-28.828l154.024,154.024c5.193,5.193,12.001,7.79,18.808,7.79c6.808,0,13.614-2.597,18.808-7.79
	C494.657,480.525,494.657,463.683,484.272,453.297z M73.152,189.506c0-67.83,55.183-123.013,123.013-123.013
	s123.013,55.183,123.013,123.013s-55.183,123.013-123.013,123.013S73.152,257.337,73.152,189.506z"/>
<path d="M196.165,53.195c-75.163,0-136.312,61.149-136.312,136.312s61.15,136.312,136.312,136.312s136.312-61.149,136.312-136.312
	S271.328,53.195,196.165,53.195z M196.165,299.221c-60.496,0-109.714-49.217-109.714-109.714S135.669,79.792,196.165,79.792
	s109.714,49.217,109.714,109.714S256.662,299.221,196.165,299.221z"/>
<path d="M493.676,443.893L493.676,443.893L349.931,300.149c23.122-32.11,35.74-70.953,35.74-110.643
	C385.672,85.012,300.66,0,196.165,0S6.659,85.012,6.659,189.506s85.012,189.506,189.506,189.506
	c33.349,0,65.797-8.715,94.494-25.293l146.593,146.594c7.535,7.535,17.554,11.686,28.212,11.686
	c10.658,0,20.675-4.151,28.212-11.686C509.23,484.759,509.23,459.449,493.676,443.893z M474.869,481.507
	c-2.512,2.512-5.851,3.895-9.404,3.895c-3.552,0-6.893-1.383-9.404-3.895L302.037,327.483c-2.571-2.571-5.975-3.895-9.408-3.895
	c-2.524,0-5.064,0.717-7.296,2.184c-26.543,17.431-57.375,26.644-89.169,26.644c-89.829,0-162.909-73.08-162.909-162.909
	s73.08-162.909,162.909-162.909s162.909,73.08,162.909,162.909c0,37.585-13.166,74.285-37.071,103.34
	c-4.35,5.286-3.975,13.011,0.864,17.852l152,152C480.052,467.886,480.052,476.322,474.869,481.507z"/>
</svg>